<?xml version="1.0" encoding="utf-8"?>
<!-- Generated by IcoMoon.io -->
<!DOCTYPE svg PUBLIC "-//W3C//DTD SVG 1.1//EN" "http://www.w3.org/Graphics/SVG/1.1/DTD/svg11.dtd">
<svg version="1.1" xmlns="http://www.w3.org/2000/svg" xmlns:xlink="http://www.w3.org/1999/xlink" width="560" height="20" viewBox="0 0 560 20">
<svg id="icon-arrow-down" width="19" height="20" viewBox="0 0 19 20" x="0" y="0">
<path fill="#ffffff" d="M17.98 9.286q0 0.592-0.413 1.004l-7.266 7.277q-0.435 0.413-1.016 0.413-0.592 0-1.004-0.413l-7.266-7.277q-0.424-0.402-0.424-1.004 0-0.592 0.424-1.016l0.826-0.837q0.435-0.413 1.016-0.413 0.592 0 1.004 0.413l3.281 3.281v-7.857q0-0.58 0.424-1.004t1.004-0.424h1.429q0.58 0 1.004 0.424t0.424 1.004v7.857l3.281-3.281q0.413-0.413 1.004-0.413 0.58 0 1.016 0.413l0.837 0.837q0.413 0.435 0.413 1.016z"></path>
</svg>
<svg id="icon-arrow-up" width="19" height="20" viewBox="0 0 19 20" x="36" y="0">
<path fill="#ffffff" d="M17.98 10.837q0 0.569-0.413 1.004l-0.837 0.837q-0.424 0.424-1.016 0.424-0.603 0-1.004-0.424l-3.281-3.27v7.857q0 0.58-0.419 0.943t-1.010 0.363h-1.429q-0.592 0-1.010-0.363t-0.419-0.943v-7.857l-3.281 3.27q-0.402 0.424-1.004 0.424t-1.004-0.424l-0.837-0.837q-0.424-0.424-0.424-1.004 0-0.592 0.424-1.016l7.266-7.266q0.391-0.413 1.004-0.413 0.603 0 1.016 0.413l7.266 7.266q0.413 0.435 0.413 1.016z"></path>
</svg>
</svg>
